<svg id="Layer_1" data-name="Layer 1" xmlns="http://www.w3.org/2000/svg" viewBox="0 0 1080 360"><defs><style>.cls-1{fill:#fffdf5;}.cls-2{fill:#41b9c0;}</style></defs><path class="cls-1" d="M302.4,285.87a28.53,28.53,0,0,1-8.66-4.53l3.66-5.49a23.39,23.39,0,0,0,7.53,3.87,27.11,27.11,0,0,0,7.95,1.29c4,0,7-.72,9.11-2.17A8.53,8.53,0,0,0,324,268a10.14,10.14,0,0,0-3.66-3,52.14,52.14,0,0,0-7.28-3l-1.42-.5a57.45,57.45,0,0,1-8.49-3.62,15.05,15.05,0,0,1-5.24-4.7,12.66,12.66,0,0,1-2-7.32,12.3,12.3,0,0,1,2.54-7.87,15.26,15.26,0,0,1,6.7-4.78,24.72,24.72,0,0,1,8.91-1.59,34.94,34.94,0,0,1,9.44,1.25,30.64,30.64,0,0,1,8.7,4.08l-3.5,5.49a29.51,29.51,0,0,0-7.07-3.37,26.38,26.38,0,0,0-7.66-1,13.52,13.52,0,0,0-7.32,1.83,6.22,6.22,0,0,0-2.91,5.66,6.44,6.44,0,0,0,.95,3.5A9.21,9.21,0,0,0,308,251.8a43.67,43.67,0,0,0,6.62,2.83l1.41.49a69.91,69.91,0,0,1,8.91,3.63,16.55,16.55,0,0,1,5.74,4.91,13.35,13.35,0,0,1,2.41,8.27,14.55,14.55,0,0,1-2.41,8.54,14.84,14.84,0,0,1-6.91,5.24,28.75,28.75,0,0,1-10.65,1.79A33.77,33.77,0,0,1,302.4,285.87Z"/><path class="cls-1" d="M351.16,284a22.09,22.09,0,0,1-8.53-9.86,35.42,35.42,0,0,1-2.87-14.73q0-9.31,3.49-15.56a22.35,22.35,0,0,1,9.32-9.24,27.79,27.79,0,0,1,12.9-3,25.38,25.38,0,0,1,13.73,3.54,22.08,22.08,0,0,1,8.53,9.86,35.26,35.26,0,0,1,2.88,14.73q0,9.33-3.5,15.56a22.29,22.29,0,0,1-9.32,9.24,27.73,27.73,0,0,1-12.9,3A25.38,25.38,0,0,1,351.16,284Zm23.59-5.66a16.21,16.21,0,0,0,5.91-7.45,28.93,28.93,0,0,0,2-11.06,31.48,31.48,0,0,0-1.88-11.36,16.17,16.17,0,0,0-5.7-7.62,16,16,0,0,0-9.57-2.74,17.09,17.09,0,0,0-9.86,2.7,16.33,16.33,0,0,0-5.91,7.45,29,29,0,0,0-1.95,11.07,31.47,31.47,0,0,0,1.87,11.35,16.3,16.3,0,0,0,5.7,7.62,16,16,0,0,0,9.57,2.75A17.07,17.07,0,0,0,374.75,278.3Z"/><path class="cls-1" d="M408.83,279.84h26.46v6.66H401.17V232.57h7.66Z"/><path class="cls-1" d="M449.61,284.59a18,18,0,0,1-7.41-8,26.86,26.86,0,0,1-2.41-11.6V232.57h7.65v30.71q0,17.57,15.15,17.56,7.74,0,11.19-4.45t3.46-12.61V232.57h7.65v32.12q0,7.92-3,13a17.91,17.91,0,0,1-8.12,7.45,28,28,0,0,1-11.69,2.33A24.47,24.47,0,0,1,449.61,284.59Z"/><path class="cls-1" d="M536.9,232.57v6.66H518.26V286.5h-7.65V239.23H491.88v-6.66Z"/><path class="cls-1" d="M545.22,286.5V232.57h7.66V286.5Z"/><path class="cls-1" d="M574.85,284a22.09,22.09,0,0,1-8.53-9.86,35.42,35.42,0,0,1-2.87-14.73q0-9.31,3.49-15.56a22.35,22.35,0,0,1,9.32-9.24,27.79,27.79,0,0,1,12.9-3,25.38,25.38,0,0,1,13.73,3.54,22.08,22.08,0,0,1,8.53,9.86,35.26,35.26,0,0,1,2.88,14.73q0,9.33-3.5,15.56a22.29,22.29,0,0,1-9.32,9.24,27.73,27.73,0,0,1-12.9,3A25.38,25.38,0,0,1,574.85,284Zm23.59-5.66a16.21,16.21,0,0,0,5.91-7.45,28.93,28.93,0,0,0,2-11.06,31.48,31.48,0,0,0-1.88-11.36,16.23,16.23,0,0,0-5.7-7.62,16,16,0,0,0-9.57-2.74,17.09,17.09,0,0,0-9.86,2.7,16.33,16.33,0,0,0-5.91,7.45,29,29,0,0,0-1.95,11.07,31.47,31.47,0,0,0,1.87,11.35,16.3,16.3,0,0,0,5.7,7.62,16,16,0,0,0,9.57,2.75A17.07,17.07,0,0,0,598.44,278.3Z"/><path class="cls-1" d="M669.14,232.57V286.5h-8.49l-23.72-34.95L635.85,250a18.4,18.4,0,0,0-1-1.59c-.58-.83-1.08-1.6-1.5-2.33s-.79-1.44-1.12-2.16V286.5h-7.33V232.57h8.08l24.38,35.7q.33.51,1.41,2c.72,1,1.33,2,1.83,2.83a22,22,0,0,1,1.25,2.46v-43Z"/><path class="cls-1" d="M687.11,285.87a28.48,28.48,0,0,1-8.65-4.53l3.66-5.49a23.39,23.39,0,0,0,7.53,3.87,27.11,27.11,0,0,0,8,1.29q6,0,9.11-2.17a8.53,8.53,0,0,0,2-10.82,10.1,10.1,0,0,0-3.67-3,52.14,52.14,0,0,0-7.28-3l-1.41-.5a56.53,56.53,0,0,1-8.49-3.62,15.05,15.05,0,0,1-5.24-4.7,12.66,12.66,0,0,1-2-7.32,12.24,12.24,0,0,1,2.54-7.87,15.21,15.21,0,0,1,6.7-4.78,24.7,24.7,0,0,1,8.9-1.59,35,35,0,0,1,9.45,1.25,30.72,30.72,0,0,1,8.69,4.08l-3.49,5.49a29.39,29.39,0,0,0-7.08-3.37,26.26,26.26,0,0,0-7.65-1,13.58,13.58,0,0,0-7.33,1.83,6.22,6.22,0,0,0-2.91,5.66,6.36,6.36,0,0,0,1,3.5,9.21,9.21,0,0,0,3.33,2.83,43.49,43.49,0,0,0,6.61,2.83l1.42.49a70.3,70.3,0,0,1,8.9,3.63,16.58,16.58,0,0,1,5.75,4.91,13.42,13.42,0,0,1,2.41,8.27,14.63,14.63,0,0,1-2.41,8.54,14.89,14.89,0,0,1-6.91,5.24,28.82,28.82,0,0,1-10.65,1.79A33.79,33.79,0,0,1,687.11,285.87Z"/><path class="cls-1" d="M790.3,256.62v26.3a52.59,52.59,0,0,1-9.24,3.45A40.21,40.21,0,0,1,771,287.5q-8.9,0-14.64-3.58a21.08,21.08,0,0,1-8.41-9.82,36.57,36.57,0,0,1-2.66-14.48q0-9.66,3.49-15.94a21.72,21.72,0,0,1,9.32-9.19,28.37,28.37,0,0,1,12.9-2.92,35.51,35.51,0,0,1,9.66,1.25,33,33,0,0,1,8.32,3.66l-3.33,5.83a28.1,28.1,0,0,0-6.37-2.95,24.77,24.77,0,0,0-7.7-1.13q-9.39,0-13.77,5.62t-4.37,15.44q0,10.32,4.16,15.93t13.57,5.62a33,33,0,0,0,11.48-2.08V263.11H768.83l.83-6.49Z"/><path class="cls-1" d="M841.89,286v.5h-8.82l-15.56-21.06h-8V286.5h-7.65V232.57h17.56a25.66,25.66,0,0,1,10.69,2,14.54,14.54,0,0,1,6.57,5.58,15.53,15.53,0,0,1,2.21,8.32,17.07,17.07,0,0,1-1.46,7.07,15.27,15.27,0,0,1-4.37,5.62,18.28,18.28,0,0,1-7.24,3.45Zm-32.37-26.88h8.74q6.24,0,9.45-2.71a9.42,9.42,0,0,0,3.2-7.61c0-3.16-1-5.57-2.95-7.24s-4.87-2.5-8.7-2.5h-9.74Z"/><path class="cls-1" d="M857.29,284a22.09,22.09,0,0,1-8.53-9.86,35.42,35.42,0,0,1-2.87-14.73q0-9.31,3.49-15.56a22.35,22.35,0,0,1,9.32-9.24,27.79,27.79,0,0,1,12.9-3,25.38,25.38,0,0,1,13.73,3.54,22.08,22.08,0,0,1,8.53,9.86,35.26,35.26,0,0,1,2.87,14.73q0,9.33-3.49,15.56a22.29,22.29,0,0,1-9.32,9.24,27.73,27.73,0,0,1-12.9,3A25.38,25.38,0,0,1,857.29,284Zm23.59-5.66a16.21,16.21,0,0,0,5.91-7.45,28.93,28.93,0,0,0,2-11.06,31.48,31.48,0,0,0-1.88-11.36,16.23,16.23,0,0,0-5.7-7.62,16,16,0,0,0-9.57-2.74,17.09,17.09,0,0,0-9.86,2.7,16.33,16.33,0,0,0-5.91,7.45,29,29,0,0,0-2,11.07,31.47,31.47,0,0,0,1.87,11.35,16.3,16.3,0,0,0,5.7,7.62A16,16,0,0,0,871,281,17.07,17.07,0,0,0,880.88,278.3Z"/><path class="cls-1" d="M915.79,284.59a18,18,0,0,1-7.41-8A26.86,26.86,0,0,1,906,265V232.57h7.66v30.71q0,17.57,15.14,17.56,7.74,0,11.2-4.45t3.45-12.61V232.57h7.66v32.12q0,7.92-3,13a17.88,17.88,0,0,1-8.11,7.45,28,28,0,0,1-11.7,2.33A24.47,24.47,0,0,1,915.79,284.59Z"/><path class="cls-1" d="M992.27,234.61a14.75,14.75,0,0,1,6.74,5.74,16.27,16.27,0,0,1,2.25,8.62,17.63,17.63,0,0,1-2.29,8.9,16.29,16.29,0,0,1-6.91,6.37,24.7,24.7,0,0,1-11.36,2.37h-9.65V286.5h-7.66V232.57h18A26.28,26.28,0,0,1,992.27,234.61ZM990,257.29a10,10,0,0,0,3.29-8c0-3.33-1-5.87-3-7.61s-5-2.63-9-2.63H971.05v21.06h9.07Q986.69,260.12,990,257.29Z"/><path class="cls-2" d="M370.14,92.79H318.09v28.59h45l-2.87,20.11H318.09v45.34H293.74V72.5h76.4Z"/><path class="cls-2" d="M436.83,72.5l41.11,112.92v1.41H451.3l-9.18-27.35H399.78l-9,27.35H364.49v-1.41L405.6,72.5Zm-30.35,66.87h28.94L420.77,95.79Z"/><path class="cls-2" d="M583.44,185.42v1.41h-28l-28.72-41.64H517.1v41.64H492.76V72.5H531q15.18,0,25.32,4.68t15.09,12.7a34.18,34.18,0,0,1,4.94,18.26q0,12-6,20.73t-17.65,13Zm-66.34-59.1h11q10.81,0,16.67-4.06t5.86-13.41q0-8.11-5.23-12.18t-14.6-4H517.1Z"/><path class="cls-2" d="M717.88,142V162H704.12v24.88H679.77V162H629.14V150.66L660,72.5h27.17L657.54,142h22.23l4.77-28.23h19.58V142Z"/><rect class="cls-1" x="78.75" y="72.5" width="150.49" height="21.5" rx="7.6"/><path class="cls-1" d="M229.24,123.1V279.9a7.6,7.6,0,0,1-7.6,7.6h-6.3a7.6,7.6,0,0,1-7.6-7.6V144.6a7.6,7.6,0,0,0-7.6-7.6H86.34a7.59,7.59,0,0,1-7.59-7.6v-6.3a7.59,7.59,0,0,1,7.59-7.6h135.3A7.6,7.6,0,0,1,229.24,123.1Z"/><rect class="cls-2" x="78.75" y="147.75" width="21.5" height="21.5" rx="7.6"/><path class="cls-2" d="M186.24,187.6v92.3a7.6,7.6,0,0,1-7.6,7.6h-6.3a7.6,7.6,0,0,1-7.6-7.6V209.1a7.59,7.59,0,0,0-7.59-7.6H86.34a7.59,7.59,0,0,1-7.59-7.6v-6.3a7.59,7.59,0,0,1,7.59-7.6h92.3A7.6,7.6,0,0,1,186.24,187.6Z"/><path class="cls-2" d="M152.6,228.85,96.18,285.27a7.61,7.61,0,0,1-5.37,2.22H86.34a7.6,7.6,0,0,1-7.6-7.59v-4.46A7.59,7.59,0,0,1,81,270.07l56.43-56.42a7.59,7.59,0,0,1,10.74,0l4.46,4.46A7.59,7.59,0,0,1,152.6,228.85Z"/></svg>